<?xml version="1.0" standalone="yes"?>
<svg width="196" height="272">
<path style="fill:#ffffff; stroke:none;" d="M0 0L0 272L196 272L196 0L0 0z"/>
<path style="fill:#505050; stroke:none;" d="M95.6667 2.33334L96.3333 2.66666L95.6667 2.33334z"/>
<path style="fill:#000000; stroke:none;" d="M5 40L50 57C48.1743 61.7072 43.8693 68.7779 45.6427 73.9568C47.9484 80.6898 61.048 85.8031 67 88.7523C88.3395 99.326 114.872 98.9642 136 88.2438C141.488 85.4591 152.26 80.6544 153.642 73.9853C154.759 68.5959 150.972 61.8332 149 57L177 47L177 61C173.005 62.1253 169.679 64.5161 169.167 69C168.592 74.0394 172.999 77.2303 173.293 82C173.814 90.445 171.001 99.4199 171 108L186 108C186 99.5067 183.399 90.2342 183.929 82.0147C184.25 77.0294 189.277 74.4843 188.873 69.0008C188.46 63.4142 183.619 62.1261 181.179 57.8156C174.92 46.7583 186.683 42.8967 194 39C175.048 26.415 148.16 20.4371 127 12C118.924 8.77972 107.822 1.75284 99 2.21683C82.4077 3.08945 63.5295 15.644 48 21.3048C37.9175 24.9801 28.0493 29.1788 18 32.9498C13.5461 34.6212 7.60203 35.8552 5 40z"/>
<path style="fill:#808080; stroke:none;" d="M105 3L106 4L105 3z"/>
<path style="fill:#a0a0a0; stroke:none;" d="M90 4L91 5L90 4z"/>
<path style="fill:#808080; stroke:none;" d="M110 5L111 6L110 5z"/>
<path style="fill:#909090; stroke:none;" d="M85 6L86 7L85 6z"/>
<path style="fill:#a0a0a0; stroke:none;" d="M113 6L114 7L113 6z"/>
<path style="fill:#606060; stroke:none;" d="M83 7L84 8L83 7z"/>
<path style="fill:#707070; stroke:none;" d="M115 7L116 8L115 7z"/>
<path style="fill:#808080; stroke:none;" d="M80 8L81 9L80 8z"/>
<path style="fill:#a0a0a0; stroke:none;" d="M118 8L119 9L118 8z"/>
<path style="fill:#606060; stroke:none;" d="M120 9L121 10L120 9z"/>
<path style="fill:#a0a0a0; stroke:none;" d="M72 11L73 12L72 11z"/>
<path style="fill:#606060; stroke:none;" d="M125 11L126 12L125 11z"/>
<path style="fill:#707070; stroke:none;" d="M70 12L71 13L70 12z"/>
<path style="fill:#909090; stroke:none;" d="M128 12L129 13L128 12z"/>
<path style="fill:#a0a0a0; stroke:none;" d="M67 13L68 14L67 13z"/>
<path style="fill:#b0b0b0; stroke:none;" d="M130.667 13.3333L131.333 13.6667L130.667 13.3333z"/>
<path style="fill:#808080; stroke:none;" d="M133 14L134 15L133 14z"/>
<path style="fill:#909090; stroke:none;" d="M62 15L63 16L62 15z"/>
<path style="fill:#606060; stroke:none;" d="M60 16L61 17L60 16z"/>
<path style="fill:#808080; stroke:none;" d="M138 16L139 17L138 16z"/>
<path style="fill:#909090; stroke:none;" d="M57 17L58 18L57 17z"/>
<path style="fill:#a0a0a0; stroke:none;" d="M141 17L142 18L141 17z"/>
<path style="fill:#707070; stroke:none;" d="M143 18L144 19L143 18z"/>
<path style="fill:#808080; stroke:none;" d="M52 19L53 20L52 19z"/>
<path style="fill:#a0a0a0; stroke:none;" d="M146 19L147 20L146 19z"/>
<path style="fill:#505050; stroke:none;" d="M49.6667 20.3333L50.3333 20.6667L49.6667 20.3333z"/>
<path style="fill:#707070; stroke:none;" d="M148 20L149 21L148 20M47 21L48 22L47 21z"/>
<path style="fill:#a0a0a0; stroke:none;" d="M44 22L45 23L44 22z"/>
<path style="fill:#606060; stroke:none;" d="M153 22L154 23L153 22z"/>
<path style="fill:#a0a0a0; stroke:none;" d="M39 24L40 25L39 24z"/>
<path style="fill:#606060; stroke:none;" d="M158 24L159 25L158 24z"/>
<path style="fill:#909090; stroke:none;" d="M161 25L162 26L161 25M34 26L35 27L34 26z"/>
<path style="fill:#606060; stroke:none;" d="M163 26L164 27L163 26M32 27L33 28L32 27z"/>
<path style="fill:#909090; stroke:none;" d="M166 27L167 28L166 27z"/>
<path style="fill:#808080; stroke:none;" d="M29 28L30 29L29 28z"/>
<path style="fill:#b0b0b0; stroke:none;" d="M168.667 28.3333L169.333 28.6667L168.667 28.3333z"/>
<path style="fill:#808080; stroke:none;" d="M171 29L172 30L171 29z"/>
<path style="fill:#707070; stroke:none;" d="M23.6667 30.3333L24.3333 30.6667L23.6667 30.3333z"/>
<path style="fill:#808080; stroke:none;" d="M21 31L22 32L21 31M176 31L177 32L176 31z"/>
<path style="fill:#505050; stroke:none;" d="M18.6667 32.3333L19.3333 32.6667L18.6667 32.3333z"/>
<path style="fill:#a0a0a0; stroke:none;" d="M179 32L180 33L179 32z"/>
<path style="fill:#707070; stroke:none;" d="M16 33L17 34L16 33M181 33L182 34L181 33z"/>
<path style="fill:#a0a0a0; stroke:none;" d="M184 34L185 35L184 34z"/>
<path style="fill:#808080; stroke:none;" d="M11 35L12 36L11 35z"/>
<path style="fill:#707070; stroke:none;" d="M186 35L187 36L186 35z"/>
<path style="fill:#606060; stroke:none;" d="M9 36L10 37L9 36M191 37L192 38L191 37z"/>
<path style="fill:#9f9f9f; stroke:none;" d="M193 39L194 40L193 39M7 40L8 41L7 40M191 40L192 41L191 40z"/>
<path style="fill:#8f8f8f; stroke:none;" d="M9.66667 41.3333L10.3333 41.6667L9.66667 41.3333z"/>
<path style="fill:#6f6f6f; stroke:none;" d="M188 41L189 42L188 41z"/>
<path style="fill:#7f7f7f; stroke:none;" d="M183 43L184 44L183 43M18 44L19 45L18 44z"/>
<path style="fill:#5f5f5f; stroke:none;" d="M181 44L182 45L181 44z"/>
<path style="fill:#7f7f7f; stroke:none;" d="M23 46L24 47L23 46z"/>
<path style="fill:#3f3f3f; stroke:none;" d="M180 46L180 58L181 58L180 46z"/>
<path style="fill:#9f9f9f; stroke:none;" d="M173 47L174 48L173 47z"/>
<path style="fill:#7f7f7f; stroke:none;" d="M28 48L29 49L28 48z"/>
<path style="fill:#6f6f6f; stroke:none;" d="M170 48L171 49L170 48z"/>
<path style="fill:#9f9f9f; stroke:none;" d="M168 49L169 50L168 49z"/>
<path style="fill:#7f7f7f; stroke:none;" d="M33 50L34 51L33 50z"/>
<path style="fill:#6f6f6f; stroke:none;" d="M165 50L166 51L165 50z"/>
<path style="fill:#9f9f9f; stroke:none;" d="M163 51L164 52L163 51z"/>
<path style="fill:#8f8f8f; stroke:none;" d="M38 52L39 53L38 52z"/>
<path style="fill:#7f7f7f; stroke:none;" d="M160 52L161 53L160 52z"/>
<path style="fill:#5f5f5f; stroke:none;" d="M41 53L42 54L41 53z"/>
<path style="fill:#bfbfbf; stroke:none;" d="M176 53L176 60L177 60L176 53z"/>
<path style="fill:#8f8f8f; stroke:none;" d="M43 54L44 55L43 54z"/>
<path style="fill:#5f5f5f; stroke:none;" d="M152 55L153 56L152 55z"/>
<path style="fill:#6f6f6f; stroke:none;" d="M48 56L49 57L48 56z"/>
<path style="fill:#3f3f3f; stroke:none;" d="M49.3333 57.6667L49.6667 58.3333L49.3333 57.6667z"/>
<path style="fill:#9f9f9f; stroke:none;" d="M149 58L150 59L149 58z"/>
<path style="fill:#606060; stroke:none;" d="M181 59L182 60L181 59z"/>
<path style="fill:#9f9f9f; stroke:none;" d="M150 60L151 61L150 60z"/>
<path style="fill:#606060; stroke:none;" d="M176 60L177 61L176 60z"/>
<path style="fill:#808080; stroke:none;" d="M184 61L185 62L184 61M172 62L173 63L172 62z"/>
<path style="fill:#8f8f8f; stroke:none;" d="M47 63L48 64L47 63z"/>
<path style="fill:#606060; stroke:none;" d="M171 63L172 64L171 63z"/>
<path style="fill:#6f6f6f; stroke:none;" d="M170 64L171 65L170 64z"/>
<path style="fill:#4f4f4f; stroke:none;" d="M152.333 65.6667L152.667 66.3333L152.333 65.6667z"/>
<path style="fill:#7f7f7f; stroke:none;" d="M188 65L189 66L188 65z"/>
<path style="fill:#4f4f4f; stroke:none;" d="M45.3333 68.6667L45.6667 69.3333L45.3333 68.6667z"/>
<path style="fill:#7f7f7f; stroke:none;" d="M153.333 68.6667L153.667 69.3333L153.333 68.6667M168 68L168 72L169 72L168 68M189 68L189 72L190 72L189 68z"/>
<path style="fill:#8f8f8f; stroke:none;" d="M44 71L44 74L45 74L44 71z"/>
<path style="fill:#afafaf; stroke:none;" d="M154 72L154 75L155 75L154 72z"/>
<path style="fill:#000000; stroke:none;" d="M148 96C153.677 93.3027 160.698 88.9661 164.562 83.9097C167.188 80.4727 166.266 75.0755 160.995 75.7168C153.61 76.6154 145.442 85.8853 139 89.5725C121.773 99.4331 101.766 105.536 82 100.625C68.2019 97.1968 56.7864 90.9487 46 81.7145C42.9391 79.0941 37.7461 72.9861 33.3225 76.6188C25.0755 83.3915 46.1035 91.4076 44.5069 98.0147C43.7144 101.295 40.3679 103.94 38.9198 107C35.4918 114.243 35.5632 122.445 37.7492 130C41.4457 142.775 52.8346 151.38 66 151.961C70.9232 152.178 77.3437 149.886 81.9606 151.042C88.0078 152.557 90.7956 163.364 97.1698 163.364C103.505 163.364 106.28 153.448 112.001 151.504C119.829 148.843 129.445 153.273 138 150.123C163.808 140.621 160.408 114.223 148 96z"/>
<path style="fill:#8f8f8f; stroke:none;" d="M45 75L46 76L45 75z"/>
<path style="fill:#505050; stroke:none;" d="M159.667 75.3333L160.333 75.6667L159.667 75.3333z"/>
<path style="fill:#5f5f5f; stroke:none;" d="M170 75L171 76L170 75z"/>
<path style="fill:#6f6f6f; stroke:none;" d="M187 75L188 76L187 75z"/>
<path style="fill:#9f9f9f; stroke:none;" d="M32 76L33 77L32 76M46 76L47 77L46 76M165 76L166 77L165 76z"/>
<path style="fill:#5f5f5f; stroke:none;" d="M171 76L172 77L171 76z"/>
<path style="fill:#9f9f9f; stroke:none;" d="M156 77L157 78L156 77z"/>
<path style="fill:#5f5f5f; stroke:none;" d="M185 77L186 78L185 77z"/>
<path style="fill:#8f8f8f; stroke:none;" d="M49 78L50 79L49 78z"/>
<path style="fill:#606060; stroke:none;" d="M155 78L156 79L155 78z"/>
<path style="fill:#9f9f9f; stroke:none;" d="M184 78L185 79L184 78z"/>
<path style="fill:#5f5f5f; stroke:none;" d="M51 79L52 80L51 79M149 79L150 80L149 79z"/>
<path style="fill:#bfbfbf; stroke:none;" d="M173 79L173 83L174 83L173 79z"/>
<path style="fill:#7f7f7f; stroke:none;" d="M183 79L183 82L184 82L183 79z"/>
<path style="fill:#9f9f9f; stroke:none;" d="M148 80L149 81L148 80z"/>
<path style="fill:#7f7f7f; stroke:none;" d="M54 81L55 82L54 81z"/>
<path style="fill:#808080; stroke:none;" d="M151 81L152 82L151 81z"/>
<path style="fill:#7f7f7f; stroke:none;" d="M166 81L167 82L166 81z"/>
<path style="fill:#707070; stroke:none;" d="M46 82L47 83L46 82z"/>
<path style="fill:#6f6f6f; stroke:none;" d="M145 82L146 83L145 82M32 83L33 84L32 83z"/>
<path style="fill:#8f8f8f; stroke:none;" d="M57 83L58 84L57 83z"/>
<path style="fill:#5f5f5f; stroke:none;" d="M33 84L34 85L33 84z"/>
<path style="fill:#6f6f6f; stroke:none;" d="M142 84L143 85L142 84z"/>
<path style="fill:#707070; stroke:none;" d="M147 84L148 85L147 84z"/>
<path style="fill:#5f5f5f; stroke:none;" d="M184 84L184 87L185 87L184 84M34 85L35 86L34 85M35 86L36 87L35 86z"/>
<path style="fill:#909090; stroke:none;" d="M51 86L52 87L51 86z"/>
<path style="fill:#9f9f9f; stroke:none;" d="M62 86L63 87L62 86M139 86L140 87L139 86z"/>
<path style="fill:#606060; stroke:none;" d="M144 86L145 87L144 86z"/>
<path style="fill:#6f6f6f; stroke:none;" d="M172 86L172 89L173 89L172 86z"/>
<path style="fill:#5f5f5f; stroke:none;" d="M36 87L37 88L36 87z"/>
<path style="fill:#7f7f7f; stroke:none;" d="M64 87L65 88L64 87M137 87L138 88L137 87z"/>
<path style="fill:#6f6f6f; stroke:none;" d="M160 87L161 88L160 87z"/>
<path style="fill:#5f5f5f; stroke:none;" d="M37 88L38 89L37 88z"/>
<path style="fill:#7f7f7f; stroke:none;" d="M66 88L67 89L66 88z"/>
<path style="fill:#5f5f5f; stroke:none;" d="M135 88L136 89L135 88z"/>
<path style="fill:#9f9f9f; stroke:none;" d="M159 88L160 89L159 88z"/>
<path style="fill:#7f7f7f; stroke:none;" d="M185.333 88.6667L185.667 89.3333L185.333 88.6667z"/>
<path style="fill:#6f6f6f; stroke:none;" d="M38 89L39 90L38 89z"/>
<path style="fill:#808080; stroke:none;" d="M55 89L56 90L55 89z"/>
<path style="fill:#7f7f7f; stroke:none;" d="M68 89L69 90L68 89z"/>
<path style="fill:#5f5f5f; stroke:none;" d="M133 89L134 90L133 89z"/>
<path style="fill:#808080; stroke:none;" d="M139 89L140 90L139 89z"/>
<path style="fill:#9f9f9f; stroke:none;" d="M39 90L40 91L39 90M70 90L71 91L70 90z"/>
<path style="fill:#7f7f7f; stroke:none;" d="M131 90L132 91L131 90z"/>
<path style="fill:#a0a0a0; stroke:none;" d="M137 90L138 91L137 90z"/>
<path style="fill:#6f6f6f; stroke:none;" d="M156 90L157 91L156 90z"/>
<path style="fill:#3f3f3f; stroke:none;" d="M185.333 90.6667L185.667 91.3333L185.333 90.6667z"/>
<path style="fill:#606060; stroke:none;" d="M58 91L59 92L58 91z"/>
<path style="fill:#afafaf; stroke:none;" d="M171.333 91.6667L171.667 92.3333L171.333 91.6667z"/>
<path style="fill:#909090; stroke:none;" d="M60 92L61 93L60 92z"/>
<path style="fill:#4f4f4f; stroke:none;" d="M75.6667 92.3333L76.3333 92.6667L75.6667 92.3333z"/>
<path style="fill:#6f6f6f; stroke:none;" d="M126 92L127 93L126 92z"/>
<path style="fill:#8f8f8f; stroke:none;" d="M43 93L44 94L43 93z"/>
<path style="fill:#a0a0a0; stroke:none;" d="M62 93L63 94L62 93z"/>
<path style="fill:#5f5f5f; stroke:none;" d="M78.6667 93.3333L79.3333 93.6667L78.6667 93.3333z"/>
<path style="fill:#6f6f6f; stroke:none;" d="M123 93L124 94L123 93z"/>
<path style="fill:#9f9f9f; stroke:none;" d="M152 93L153 94L152 93z"/>
<path style="fill:#3f3f3f; stroke:none;" d="M171 93L171 98L172 98L171 93z"/>
<path style="fill:#a0a0a0; stroke:none;" d="M64 94L65 95L64 94z"/>
<path style="fill:#3f3f3f; stroke:none;" d="M82.6667 94.3333L83.3333 94.6667L82.6667 94.3333z"/>
<path style="fill:#9f9f9f; stroke:none;" d="M119.667 94.3333L120.333 94.6667L119.667 94.3333z"/>
<path style="fill:#bfbfbf; stroke:none;" d="M186.333 94.6667L186.667 95.3333L186.333 94.6667z"/>
<path style="fill:#6f6f6f; stroke:none;" d="M86 95L86 96L89 96L86 95M114 95L114 96L117 96L114 95z"/>
<path style="fill:#a0a0a0; stroke:none;" d="M127 95L128 96L127 95z"/>
<path style="fill:#9f9f9f; stroke:none;" d="M149 95L150 96L149 95z"/>
<path style="fill:#606060; stroke:none;" d="M68 96L69 97L68 96z"/>
<path style="fill:#afafaf; stroke:none;" d="M91.6667 96.3333L92.3333 96.6667L91.6667 96.3333z"/>
<path style="fill:#3f3f3f; stroke:none;" d="M93 96L93 97L100 97L93 96M103 96L103 97L108 97L103 96z"/>
<path style="fill:#7f7f7f; stroke:none;" d="M108.667 96.3333L109.333 96.6667L108.667 96.3333z"/>
<path style="fill:#bfbfbf; stroke:none;" d="M110.667 96.3333L111.333 96.6667L110.667 96.3333z"/>
<path style="fill:#404040; stroke:none;" d="M148.333 96.6667L148.667 97.3333L148.333 96.6667z"/>
<path style="fill:#7f7f7f; stroke:none;" d="M186 96L186 99L187 99L186 96z"/>
<path style="fill:#909090; stroke:none;" d="M122 97L123 98L122 97M119 98L120 99L119 98z"/>
<path style="fill:#7f7f7f; stroke:none;" d="M149 98L150 99L149 98z"/>
<path style="fill:#606060; stroke:none;" d="M44 99L45 100L44 99z"/>
<path style="fill:#c0c0c0; stroke:none;" d="M77.6667 99.3333L78.3333 99.6667L77.6667 99.3333z"/>
<path style="fill:#9f9f9f; stroke:none;" d="M150 99L151 100L150 99z"/>
<path style="fill:#3f3f3f; stroke:none;" d="M186 99L186 108L187 108L186 99z"/>
<path style="fill:#6f6f6f; stroke:none;" d="M43 100L44 101L43 100z"/>
<path style="fill:#c0c0c0; stroke:none;" d="M81 100L81 101L84 101L81 100z"/>
<path style="fill:#707070; stroke:none;" d="M111 100L111 101L114 101L111 100z"/>
<path style="fill:#bfbfbf; stroke:none;" d="M170 100L170 103L171 103L170 100z"/>
<path style="fill:#9f9f9f; stroke:none;" d="M42 101L43 102L42 101z"/>
<path style="fill:#606060; stroke:none;" d="M85 101L85 102L88 102L85 101z"/>
<path style="fill:#c0c0c0; stroke:none;" d="M88 101L88 102L91 102L88 101z"/>
<path style="fill:#b0b0b0; stroke:none;" d="M104 101L104 102L107 102L104 101z"/>
<path style="fill:#404040; stroke:none;" d="M107.667 101.333L108.333 101.667L107.667 101.333M95 102L95 103L99 103L95 102z"/>
<path style="fill:#7f7f7f; stroke:none;" d="M170 103L170 108L171 108L170 103z"/>
<path style="fill:#4e6d7f; stroke:none;" d="M62 104L62 105L69 105L62 104z"/>
<path style="fill:#49616f; stroke:none;" d="M124 104L124 105L131 105L124 104z"/>
<path style="fill:#38b6ff; stroke:none;" d="M47 119L83 119C80.2781 98.6363 52.2123 102.226 47 119M109 119L146 119C140.318 99.6925 115.583 101.291 109 119z"/>
<path style="fill:#7f7f7f; stroke:none;" d="M154 105L155 106L154 105z"/>
<path style="fill:#9f9f9f; stroke:none;" d="M38 107L39 108L38 107z"/>
<path style="fill:#4e6d7f; stroke:none;" d="M75 107L76 108L75 107M117 107L118 108L117 107z"/>
<path style="fill:#5f5f5f; stroke:none;" d="M155 107L156 108L155 107z"/>
<path style="fill:#4e6d7f; stroke:none;" d="M53 108L54 109L53 108z"/>
<path style="fill:#3f3f3f; stroke:none;" d="M172 108L172 109L185 109L172 108z"/>
<path style="fill:#9f9f9f; stroke:none;" d="M185 108L186 109L185 108z"/>
<path style="fill:#7f7f7f; stroke:none;" d="M156 109L157 110L156 109z"/>
<path style="fill:#6f6f6f; stroke:none;" d="M37 110L38 111L37 110z"/>
<path style="fill:#4d6d7f; stroke:none;" d="M50 111L51 112L50 111z"/>
<path style="fill:#4f4f4f; stroke:none;" d="M36 113L36 116L37 116L36 113z"/>
<path style="fill:#49616f; stroke:none;" d="M111 113L112 114L111 113z"/>
<path style="fill:#508caf; stroke:none;" d="M47.3333 116.667L47.6667 117.333L47.3333 116.667z"/>
<path style="fill:#3f3f3f; stroke:none;" d="M158 116L158 124L159 124L158 116z"/>
<path style="fill:#49616f; stroke:none;" d="M83 118L84 119L83 118z"/>
<path style="fill:#6f6f6f; stroke:none;" d="M36 124L36 127L37 127L36 124z"/>
<path style="fill:#8f8f8f; stroke:none;" d="M158.333 124.667L158.667 125.333L158.333 124.667z"/>
<path style="fill:#3f3f3f; stroke:none;" d="M48.6667 127.333L49.3333 127.667L48.6667 127.333z"/>
<path style="fill:#7f7f7f; stroke:none;" d="M50 127L50 128L56 128L50 127M75 127L75 128L83 130C84.5413 125.911 77.6161 127 75 127z"/>
<path style="fill:#3f3f3f; stroke:none;" d="M110 127L110 128L113 128L110 127z"/>
<path style="fill:#7f7f7f; stroke:none;" d="M113 127L113 128L118 128L113 127M137 127L137 128L146 128L137 127z"/>
<path style="fill:#9f9f9f; stroke:none;" d="M47.3333 128.667L47.6667 129.333L47.3333 128.667z"/>
<path style="fill:#ffffff; stroke:none;" d="M48 128C50.1401 147.216 79.7498 145.945 83 128L65 132.588L48 128z"/>
<path style="fill:#5f5f5f; stroke:none;" d="M57 128L58 129L57 128z"/>
<path style="fill:#7f7f7f; stroke:none;" d="M73 128L74 129L73 128z"/>
<path style="fill:#ffffff; stroke:none;" d="M110 128C113.671 148.266 140.222 144.665 146 128L128 132.543L110 128z"/>
<path style="fill:#9f9f9f; stroke:none;" d="M37.3333 129.667L37.6667 130.333L37.3333 129.667z"/>
<path style="fill:#5f5f5f; stroke:none;" d="M58 129L59 130L58 129z"/>
<path style="fill:#9f9f9f; stroke:none;" d="M72 129L73 130L72 129z"/>
<path style="fill:#5f5f5f; stroke:none;" d="M145.333 129.667L145.667 130.333L145.333 129.667z"/>
<path style="fill:#6f6f6f; stroke:none;" d="M59 130L60 131L59 130z"/>
<path style="fill:#9f9f9f; stroke:none;" d="M71 130L72 131L71 130z"/>
<path style="fill:#7f7f7f; stroke:none;" d="M82 131L83 132L82 131z"/>
<path style="fill:#5f5f5f; stroke:none;" d="M110 131L111 132L110 131z"/>
<path style="fill:#6f6f6f; stroke:none;" d="M132 131L133 132L132 131z"/>
<path style="fill:#5f5f5f; stroke:none;" d="M38 132L39 133L38 132M48 132L49 133L48 132z"/>
<path style="fill:#8f8f8f; stroke:none;" d="M62 132L63 133L62 132M68 132L69 133L68 132z"/>
<path style="fill:#5f5f5f; stroke:none;" d="M130 132L131 133L130 132z"/>
<path style="fill:#8f8f8f; stroke:none;" d="M144 132L145 133L144 132z"/>
<path style="fill:#7f7f7f; stroke:none;" d="M81 133L82 134L81 133z"/>
<path style="fill:#5f5f5f; stroke:none;" d="M143 134L144 135L143 134z"/>
<path style="fill:#8f8f8f; stroke:none;" d="M155 134L156 135L155 134z"/>
<path style="fill:#606060; stroke:none;" d="M50 135L51 136L50 135z"/>
<path style="fill:#9f9f9f; stroke:none;" d="M142 135L143 136L142 135z"/>
<path style="fill:#5f5f5f; stroke:none;" d="M40 136L41 137L40 136z"/>
<path style="fill:#606060; stroke:none;" d="M51 136L52 137L51 136M79 136L80 137L79 136z"/>
<path style="fill:#9f9f9f; stroke:none;" d="M154 136L155 137L154 136z"/>
<path style="fill:#808080; stroke:none;" d="M52 137L53 138L52 137z"/>
<path style="fill:#606060; stroke:none;" d="M78 137L79 138L78 137z"/>
<path style="fill:#7f7f7f; stroke:none;" d="M97 138L98 139L97 138z"/>
<path style="fill:#9f9f9f; stroke:none;" d="M139 138L140 139L139 138z"/>
<path style="fill:#5f5f5f; stroke:none;" d="M42 139L43 140L42 139z"/>
<path style="fill:#909090; stroke:none;" d="M75 139L76 140L75 139z"/>
<path style="fill:#fefefe; stroke:none;" d="M96 139L92 144C98.3679 152.327 105.112 143.395 96 139z"/>
<path style="fill:#8e8e8e; stroke:none;" d="M98 139L99 140L98 139z"/>
<path style="fill:#707070; stroke:none;" d="M117 139L118 140L117 139z"/>
<path style="fill:#a0a0a0; stroke:none;" d="M73 140L74 141L73 140z"/>
<path style="fill:#9e9e9e; stroke:none;" d="M95 140L96 141L95 140z"/>
<path style="fill:#5f5f5f; stroke:none;" d="M99 140L100 141L99 140z"/>
<path style="fill:#a0a0a0; stroke:none;" d="M119 140L120 141L119 140z"/>
<path style="fill:#606060; stroke:none;" d="M136 140L137 141L136 140z"/>
<path style="fill:#6f6f6f; stroke:none;" d="M151 140L152 141L151 140z"/>
<path style="fill:#707070; stroke:none;" d="M70.6667 141.333L71.3333 141.667L70.6667 141.333z"/>
<path style="fill:#8e8e8e; stroke:none;" d="M94 141L95 142L94 141z"/>
<path style="fill:#707070; stroke:none;" d="M121 141L122 142L121 141z"/>
<path style="fill:#404040; stroke:none;" d="M133.667 141.333L134.333 141.667L133.667 141.333z"/>
<path style="fill:#5f5f5f; stroke:none;" d="M150 141L151 142L150 141z"/>
<path style="fill:#808080; stroke:none;" d="M62 142L62 143L68 143L62 142z"/>
<path style="fill:#5f5f5f; stroke:none;" d="M93 142L94 143L93 142z"/>
<path style="fill:#808080; stroke:none;" d="M124 142L124 143L131 143L124 142z"/>
<path style="fill:#5f5f5f; stroke:none;" d="M149 142L150 143L149 142M102 144L103 145L102 144M147 144L148 145L147 144z"/>
<path style="fill:#9f9f9f; stroke:none;" d="M146 145L147 146L146 145z"/>
<path style="fill:#8f8f8f; stroke:none;" d="M49 146L50 147L49 146z"/>
<path style="fill:#7f7f7f; stroke:none;" d="M94 147L95 148L94 147M143 147L144 148L143 147z"/>
<path style="fill:#9f9f9f; stroke:none;" d="M52 148L53 149L52 148z"/>
<path style="fill:#9e9e9e; stroke:none;" d="M95 148L96 149L95 148z"/>
<path style="fill:#9f9f9f; stroke:none;" d="M54 149L55 150L54 149z"/>
<path style="fill:#bebebe; stroke:none;" d="M96.6667 149.333L97.3333 149.667L96.6667 149.333z"/>
<path style="fill:#5f5f5f; stroke:none;" d="M139 149L140 150L139 149z"/>
<path style="fill:#7f7f7f; stroke:none;" d="M80 150L80 151L83 151L80 150z"/>
<path style="fill:#5f5f5f; stroke:none;" d="M112.667 150.333L113.333 150.667L112.667 150.333z"/>
<path style="fill:#3f3f3f; stroke:none;" d="M60.6667 151.333L61.3333 151.667L60.6667 151.333z"/>
<path style="fill:#6f6f6f; stroke:none;" d="M76.6667 151.333L77.3333 151.667L76.6667 151.333z"/>
<path style="fill:#5f5f5f; stroke:none;" d="M84 151L85 152L84 151z"/>
<path style="fill:#9f9f9f; stroke:none;" d="M110 151L111 152L110 151z"/>
<path style="fill:#8f8f8f; stroke:none;" d="M133.667 151.333L134.333 151.667L133.667 151.333z"/>
<path style="fill:#bfbfbf; stroke:none;" d="M63.6667 152.333L64.3333 152.667L63.6667 152.333z"/>
<path style="fill:#7f7f7f; stroke:none;" d="M65 152L65 153L73 153L65 152z"/>
<path style="fill:#5f5f5f; stroke:none;" d="M85 152L86 153L85 152z"/>
<path style="fill:#7f7f7f; stroke:none;" d="M120 152L120 153L130 153L120 152z"/>
<path style="fill:#9f9f9f; stroke:none;" d="M108 153L109 154L108 153M107 154L108 155L107 154z"/>
<path style="fill:#6f6f6f; stroke:none;" d="M106 155L107 156L106 155z"/>
<path style="fill:#5f5f5f; stroke:none;" d="M105 156L106 157L105 156z"/>
<path style="fill:#9f9f9f; stroke:none;" d="M89 157L90 158L89 157M90 158L91 159L90 158z"/>
<path style="fill:#5f5f5f; stroke:none;" d="M91 159L92 160L91 159M92 160L93 161L92 160z"/>
<path style="fill:#6f6f6f; stroke:none;" d="M93 161L94 162L93 161M94 162L95 163L94 162z"/>
<path style="fill:#909090; stroke:none;" d="M96.6667 164.333L97.3333 164.667L96.6667 164.333z"/>
<path style="fill:#c8c8c8; stroke:none;" d="M117 180L117 181L122 181L117 180z"/>
<path style="fill:#2f2f2f; stroke:none;" d="M34 181L34 182L46 182L34 181z"/>
<path style="fill:#4b4b4b; stroke:none;" d="M62 181L62 182L72 182L62 181M85 181L85 182L96 183L85 181z"/>
<path style="fill:#454545; stroke:none;" d="M113.667 181.333L114.333 181.667L113.667 181.333z"/>
<path style="fill:#000000; stroke:none;" d="M115 181.468C89.7234 186.318 98.6151 224.254 124 219.671C148.496 215.248 139.756 176.718 115 181.468z"/>
<path style="fill:#aaaaaa; stroke:none;" d="M124.667 181.333L125.333 181.667L124.667 181.333z"/>
<path style="fill:#4b4b4b; stroke:none;" d="M141 183L151 182C147.756 180.639 143.437 180.211 141 183M166 181L166 182L176 182L166 181z"/>
<path style="fill:#000000; stroke:none;" d="M21 220C29.8634 219.999 44.8956 204.462 49 220L59 220C56.5957 209.607 52.936 193.015 46.7222 184.318C44.6334 181.394 37.5368 180.902 34.7022 183.028C31.8441 185.171 31.0876 190.799 29.9969 194C27.0386 202.682 23.84 211.272 21 220z"/>
<path style="fill:#a4a4a4; stroke:none;" d="M46 182L47 183L46 182z"/>
<path style="fill:#000000; stroke:none;" d="M62 182L71.9321 201L62 220C71.2049 219.999 74.3026 217.581 78 209L79 209C83.2158 217.914 86.4035 220 96 220L85.5455 201L95 182C86.5619 182.001 83.0387 183.701 80 192L78 192C74.6787 183.225 70.7927 182 62 182z"/>
<path style="fill:#9f9f9f; stroke:none;" d="M110 182L111 183L110 182z"/>
<path style="fill:#696969; stroke:none;" d="M127 182L128 183L127 182z"/>
<path style="fill:#000000; stroke:none;" d="M142 182L154 220L163 220C163 204.954 171.041 195.627 176 182C164.207 182.001 163.146 187.895 159 198L152 182L142 182z"/>
<path style="fill:#959595; stroke:none;" d="M165 182L166 183L165 182z"/>
<path style="fill:#a6a6a6; stroke:none;" d="M33 183L34 184L33 183z"/>
<path style="fill:#a2a2a2; stroke:none;" d="M62 183L63 184L62 183z"/>
<path style="fill:#a9a9a9; stroke:none;" d="M73 183L74 184L73 183z"/>
<path style="fill:#616161; stroke:none;" d="M84 183L85 184L84 183z"/>
<path style="fill:#717171; stroke:none;" d="M129 183L130 184L129 183z"/>
<path style="fill:#a5a5a5; stroke:none;" d="M94 184L95 185L94 184z"/>
<path style="fill:#626262; stroke:none;" d="M107 184L108 185L107 184z"/>
<path style="fill:#5e5e5e; stroke:none;" d="M152 184L153 185L152 184z"/>
<path style="fill:#9a9a9a; stroke:none;" d="M47 185L48 186L47 185z"/>
<path style="fill:#686868; stroke:none;" d="M74 185L75 186L74 185z"/>
<path style="fill:#a1a1a1; stroke:none;" d="M132 185L133 186L132 185z"/>
<path style="fill:#595959; stroke:none;" d="M174 185L175 186L174 185z"/>
<path style="fill:#9b9b9b; stroke:none;" d="M32 186L33 187L32 186z"/>
<path style="fill:#858585; stroke:none;" d="M64 186L65 187L64 186z"/>
<path style="fill:#a0a0a0; stroke:none;" d="M82 186L83 187L82 186z"/>
<path style="fill:#919191; stroke:none;" d="M133 186L134 187L133 186z"/>
<path style="fill:#848484; stroke:none;" d="M153 186L154 187L153 186z"/>
<path style="fill:#898989; stroke:none;" d="M92 187L93 188L92 187z"/>
<path style="fill:#a2a2a2; stroke:none;" d="M134 187L135 188L134 187z"/>
<path style="fill:#797979; stroke:none;" d="M163 187L164 188L163 187z"/>
<path style="fill:#5e5e5e; stroke:none;" d="M173 187L174 188L173 187z"/>
<path style="fill:#919191; stroke:none;" d="M48 188L49 189L48 188z"/>
<path style="fill:#858585; stroke:none;" d="M76 188L77 189L76 188z"/>
<path style="fill:#757575; stroke:none;" d="M81 188L82 189L81 188z"/>
<path style="fill:#919191; stroke:none;" d="M31 189L32 190L31 189z"/>
<path style="fill:#696969; stroke:none;" d="M66 189L67 190L66 189z"/>
<path style="fill:#838383; stroke:none;" d="M102 189L103 190L102 189z"/>
<path style="fill:#8f8f8f; stroke:none;" d="M116 189L116 190L122 190L116 189z"/>
<path style="fill:#a1a1a1; stroke:none;" d="M162 189L163 190L162 189z"/>
<path style="fill:#636363; stroke:none;" d="M172 189L173 190L172 189z"/>
<path style="fill:#6d6d6d; stroke:none;" d="M90 190L91 191L90 190z"/>
<path style="fill:#8f8f8f; stroke:none;" d="M114 190L115 191L114 190z"/>
<path style="fill:#ffffff; stroke:none;" d="M115.019 190.742C102.947 195.549 111.091 215.895 123.895 210.142C135.01 205.148 127.297 185.854 115.019 190.742z"/>
<path style="fill:#7f7f7f; stroke:none;" d="M136 190L137 191L136 190z"/>
<path style="fill:#888888; stroke:none;" d="M49 191L50 192L49 191z"/>
<path style="fill:#b6b6b6; stroke:none;" d="M78.6667 191.333L79.3333 191.667L78.6667 191.333z"/>
<path style="fill:#5d5d5d; stroke:none;" d="M101 191L102 192L101 191z"/>
<path style="fill:#8c8c8c; stroke:none;" d="M125 191L126 192L125 191z"/>
<path style="fill:#636363; stroke:none;" d="M155 191L156 192L155 191z"/>
<path style="fill:#686868; stroke:none;" d="M171 191L172 192L171 191z"/>
<path style="fill:#878787; stroke:none;" d="M30 192L31 193L30 192z"/>
<path style="fill:#a1a1a1; stroke:none;" d="M126 192L127 193L126 192z"/>
<path style="fill:#828282; stroke:none;" d="M137 192L138 193L137 192z"/>
<path style="fill:#5d5d5d; stroke:none;" d="M161 192L162 193L161 192z"/>
<path style="fill:#c5c5c5; stroke:none;" d="M40 193L39 196L40 193z"/>
<path style="fill:#696969; stroke:none;" d="M127 193L128 194L127 193z"/>
<path style="fill:#888888; stroke:none;" d="M156 193L157 194L156 193z"/>
<path style="fill:#6d6d6d; stroke:none;" d="M170 193L171 194L170 193z"/>
<path style="fill:#7f7f7f; stroke:none;" d="M50 194L51 195L50 194z"/>
<path style="fill:#8f8f8f; stroke:none;" d="M69 194L70 195L69 194z"/>
<path style="fill:#858585; stroke:none;" d="M160 194L161 195L160 194z"/>
<path style="fill:#7d7d7d; stroke:none;" d="M29 195L30 196L29 195z"/>
<path style="fill:#ffffff; stroke:none;" d="M40 195L36 206L44 206L40 195z"/>
<path style="fill:#949494; stroke:none;" d="M87 195L88 196L87 195z"/>
<path style="fill:#808080; stroke:none;" d="M128 195L129 196L128 195z"/>
<path style="fill:#585858; stroke:none;" d="M138.333 195.667L138.667 196.333L138.333 195.667z"/>
<path style="fill:#737373; stroke:none;" d="M169 195L170 196L169 195z"/>
<path style="fill:#c4c4c4; stroke:none;" d="M41.3333 196.667L41.6667 197.333L41.3333 196.667z"/>
<path style="fill:#6a6a6a; stroke:none;" d="M99 196L99 203L100 203L99 196z"/>
<path style="fill:#b4b4b4; stroke:none;" d="M109.333 196.667L109.667 197.333L109.333 196.667z"/>
<path style="fill:#757575; stroke:none;" d="M51 197L52 198L51 197z"/>
<path style="fill:#727272; stroke:none;" d="M71 197L72 198L71 197z"/>
<path style="fill:#787878; stroke:none;" d="M168 197L169 198L168 197z"/>
<path style="fill:#737373; stroke:none;" d="M28 198L29 199L28 198z"/>
<path style="fill:#787878; stroke:none;" d="M85 198L86 199L85 198z"/>
<path style="fill:#595959; stroke:none;" d="M129 198L129 203L130 203L129 198M149 198L150 199L149 198z"/>
<path style="fill:#c3c3c3; stroke:none;" d="M42.3333 199.667L42.6667 200.333L42.3333 199.667z"/>
<path style="fill:#7d7d7d; stroke:none;" d="M167 199L168 200L167 199z"/>
<path style="fill:#5f5f5f; stroke:none;" d="M150 200L151 201L150 200z"/>
<path style="fill:#5b5b5b; stroke:none;" d="M84 201L85 202L84 201z"/>
<path style="fill:#828282; stroke:none;" d="M166 201L167 202L166 201z"/>
<path style="fill:#c2c2c2; stroke:none;" d="M43.3333 202.667L43.6667 203.333L43.3333 202.667z"/>
<path style="fill:#646464; stroke:none;" d="M151 202L152 203L151 202z"/>
<path style="fill:#a4a4a4; stroke:none;" d="M71 203L72 204L71 203z"/>
<path style="fill:#b7b7b7; stroke:none;" d="M99.3333 203.667L99.6667 204.333L99.3333 203.667z"/>
<path style="fill:#7b7b7b; stroke:none;" d="M109.333 203.667L109.667 204.333L109.333 203.667z"/>
<path style="fill:#545454; stroke:none;" d="M138 203L138 206L139 206L138 203z"/>
<path style="fill:#878787; stroke:none;" d="M165 203L166 204L165 203z"/>
<path style="fill:#777777; stroke:none;" d="M86 204L87 205L86 204z"/>
<path style="fill:#696969; stroke:none;" d="M152 204L153 205L152 204z"/>
<path style="fill:#535353; stroke:none;" d="M44 205L36 206L36 207L44 205z"/>
<path style="fill:#626262; stroke:none;" d="M70 205L71 206L70 205z"/>
<path style="fill:#898989; stroke:none;" d="M128 205L129 206L128 205z"/>
<path style="fill:#8c8c8c; stroke:none;" d="M164 205L165 206L164 205z"/>
<path style="fill:#6e6e6e; stroke:none;" d="M153 206L154 207L153 206z"/>
<path style="fill:#929292; stroke:none;" d="M88 207L89 208L88 207z"/>
<path style="fill:#7f7f7f; stroke:none;" d="M100 207L101 208L100 207z"/>
<path style="fill:#787878; stroke:none;" d="M127 207L128 208L127 207z"/>
<path style="fill:#979797; stroke:none;" d="M163 207L163 220L164 220L163 207z"/>
<path style="fill:#a9a9a9; stroke:none;" d="M55 208L56 209L55 208z"/>
<path style="fill:#7e7e7e; stroke:none;" d="M68 208L69 209L68 208z"/>
<path style="fill:#575757; stroke:none;" d="M111 208L112 209L111 208z"/>
<path style="fill:#797979; stroke:none;" d="M137 208L138 209L137 208z"/>
<path style="fill:#a3a3a3; stroke:none;" d="M24 209L25 210L24 209z"/>
<path style="fill:#a0a0a0; stroke:none;" d="M125 209L126 210L125 209z"/>
<path style="fill:#818181; stroke:none;" d="M77 210L78 211L77 210z"/>
<path style="fill:#9e9e9e; stroke:none;" d="M79 210L80 211L79 210z"/>
<path style="fill:#a5a5a5; stroke:none;" d="M114 210L115 211L114 210z"/>
<path style="fill:#737373; stroke:none;" d="M136 210L137 211L136 210z"/>
<path style="fill:#9f9f9f; stroke:none;" d="M56 211L57 212L56 211z"/>
<path style="fill:#9a9a9a; stroke:none;" d="M66 211L67 212L66 211z"/>
<path style="fill:#737373; stroke:none;" d="M102 211L103 212L102 211z"/>
<path style="fill:#a4a4a4; stroke:none;" d="M116 211L116 212L122 212L116 211z"/>
<path style="fill:#989898; stroke:none;" d="M23 212L24 213L23 212z"/>
<path style="fill:#6b6b6b; stroke:none;" d="M91 212L92 213L91 212z"/>
<path style="fill:#7f7f7f; stroke:none;" d="M33 213L33 214L47 214L33 213z"/>
<path style="fill:#575757; stroke:none;" d="M65 213L66 214L65 213z"/>
<path style="fill:#838383; stroke:none;" d="M81 213L82 214L81 213z"/>
<path style="fill:#8d8d8d; stroke:none;" d="M134 213L135 214L134 213z"/>
<path style="fill:#b9b9b9; stroke:none;" d="M47.3333 214.667L47.6667 215.333L47.3333 214.667z"/>
<path style="fill:#969696; stroke:none;" d="M57 214L58 215L57 214z"/>
<path style="fill:#7a7a7a; stroke:none;" d="M133 214L134 215L133 214z"/>
<path style="fill:#8e8e8e; stroke:none;" d="M22 215L23 216L22 215z"/>
<path style="fill:#6c6c6c; stroke:none;" d="M74 215L75 216L74 215z"/>
<path style="fill:#868686; stroke:none;" d="M93 215L94 216L93 215z"/>
<path style="fill:#888888; stroke:none;" d="M132 215L133 216L132 215z"/>
<path style="fill:#737373; stroke:none;" d="M63 216L64 217L63 216z"/>
<path style="fill:#686868; stroke:none;" d="M83 216L84 217L83 216z"/>
<path style="fill:#b8b8b8; stroke:none;" d="M48.3333 217.667L48.6667 218.333L48.3333 217.667z"/>
<path style="fill:#8d8d8d; stroke:none;" d="M58 217L59 218L58 217z"/>
<path style="fill:#979797; stroke:none;" d="M73 217L74 218L73 217z"/>
<path style="fill:#949494; stroke:none;" d="M108 217L109 218L108 217z"/>
<path style="fill:#848484; stroke:none;" d="M21 218L22 219L21 218z"/>
<path style="fill:#a2a2a2; stroke:none;" d="M95 218L96 219L95 218z"/>
<path style="fill:#7c7c7c; stroke:none;" d="M110 218L111 219L110 218z"/>
<path style="fill:#909090; stroke:none;" d="M61 219L62 220L61 219z"/>
<path style="fill:#898989; stroke:none;" d="M125 219L126 220L125 219z"/>
<path style="fill:#9f9f9f; stroke:none;" d="M116 220L116 221L122 221L116 220z"/>
<path style="fill:#92d7ff; stroke:none;" d="M68.3333 243.667L68.6667 244.333L68.3333 243.667z"/>
<path style="fill:#38b6ff; stroke:none;" d="M69 243L69 245L71 245L71 243L69 243M131 243L131 245L134 245L134 243L131 243z"/>
<path style="fill:#9cdbff; stroke:none;" d="M69.6667 245.333L70.3333 245.667L69.6667 245.333z"/>
<path style="fill:#38b6ff; stroke:none;" d="M36 247C36 250.581 35.1297 255.648 37.0278 258.852C39.5142 263.049 45.6188 262.343 47.3966 257.941C48.6889 254.742 48 250.39 48 247L45 247L44 259C38.8138 256.384 39.0041 252.309 39 247L36 247z"/>
<path style="fill:#a7dfff; stroke:none;" d="M39 247L39 257L40 257L39 247z"/>
<path style="fill:#c0e8ff; stroke:none;" d="M44 247L44 257L45 257L44 247z"/>
<path style="fill:#bae6ff; stroke:none;" d="M48 247L48 257L49 257L48 247z"/>
<path style="fill:#ade1ff; stroke:none;" d="M51 247L51 262L52 262L51 247z"/>
<path style="fill:#38b6ff; stroke:none;" d="M52 247L52 262L55 262L55 253L56 253C57.9689 257.559 59.8264 261.163 65 262L65 247L62 247L62 256L52 247z"/>
<path style="fill:#7fd0ff; stroke:none;" d="M61 247L60 256C62.6406 253.693 62.2959 250.089 61 247z"/>
<path style="fill:#38b6ff; stroke:none;" d="M68 247L68 262L71 262L71 247L68 247z"/>
<path style="fill:#69c8ff; stroke:none;" d="M71 247L71 262L72 262L71 247z"/>
<path style="fill:#38b6ff; stroke:none;" d="M74 247C75.411 253.096 76.7754 261.424 84 262L89 247C83.2983 247.943 82.4511 252.833 82 258C79.6825 253.584 79.528 247.959 74 247z"/>
<path style="fill:#ade1ff; stroke:none;" d="M90 247L90 262L91 262L90 247z"/>
<path style="fill:#38b6ff; stroke:none;" d="M91 247L91 262L100 262L100 259L94 259L94 256L99 256L99 253L94 253L94 249L99 249L99 247L91 247z"/>
<path style="fill:#69c8ff; stroke:none;" d="M99 247L94 249L94 250C96.499 249.959 100.235 250.275 99 247z"/>
<path style="fill:#ade1ff; stroke:none;" d="M102 247L102 262L103 262L102 247z"/>
<path style="fill:#38b6ff; stroke:none;" d="M103 247L103 262L106 262L106 256L107 256C108.645 259.62 110.002 261.35 114 262C110.498 252.921 116.315 247.038 103 247M124 259L117 258C119.114 261.834 128.662 263.62 127.168 257.089C126.501 254.171 121.908 252.197 120 250L127 251C125.349 246.305 116.785 245.788 117.466 251.911C117.807 254.98 122.09 256.89 124 259M131 247L131 262L134 262L134 247L131 247z"/>
<path style="fill:#9bdaff; stroke:none;" d="M134 247L134 262L135 262L134 247z"/>
<path style="fill:#38b6ff; stroke:none;" d="M136 247L136 250L141 250L141 262L144 262L144 250L148 250L148 247L136 247z"/>
<path style="fill:#ade1ff; stroke:none;" d="M148 247L148 250L149 250L150 247L148 247z"/>
<path style="fill:#38b6ff; stroke:none;" d="M150 247L155 262L158 262L163 247L156 253C154.723 249.461 153.824 247.661 150 247z"/>
<path style="fill:#ffffff; stroke:none;" d="M106 250L106 253L110 253L110 250L106 250z"/>
<path style="fill:#a6dfff; stroke:none;" d="M116 250L116 253L117 253L116 250z"/>
<path style="fill:#a3ddff; stroke:none;" d="M120.333 250.667L120.667 251.333L120.333 250.667z"/>
<path style="fill:#b4e3ff; stroke:none;" d="M127 250L124 251L124 252L127 250z"/>
<path style="fill:#bae6ff; stroke:none;" d="M140 250L140 262L141 262L140 250z"/>
<path style="fill:#c3e9ff; stroke:none;" d="M144 250L144 262L145 262L144 250z"/>
<path style="fill:#cdedff; stroke:none;" d="M55 253L55 262L56 262L55 253z"/>
<path style="fill:#94d8ff; stroke:none;" d="M116 259L120 258L116 259z"/>
<path style="fill:#9bdaff; stroke:none;" d="M154 257L154 262L155 262L154 257z"/>
</svg>
